PathFileType	4	(X/Y/Z)	/Users/itak/Documents/Research/Walk-IL/dataset/trc/00404_00012.trc
DataRate	CameraRate	NumFrames	NumMarkers	Units	OrigDataRate	OrigDataStartFrame	OrigNumFrames
100.000000	100.000000	4	54	mm	100.000000	212	566
Frame#	Time	RPSI			LPSI			L3			STRN			T10			C7			CLAV			RBAK			LBAK			LSHO			LUPA			LAEL			LAOL			LWTS			LWPS			LFRA			LHPS			RSHO			RUPA			RAEL			RAOL			RWTS			RWPS			RFRA			RIFD			RHPS			RBHD			LFHD			RFHD			LBHD			LHIP			RHIP			RASI			LASI			LKNE			LTHI			LANK			LTIP			LTOE			LMT1			LMT5			LHEE			RKNE			RTHI			RANK			RTIP			RTOE			RMT1			RMT5			RHEE			LIFD			LHTS			RHTS			*53			
		X1	Y1	Z1	X2	Y2	Z2	X3	Y3	Z3	X4	Y4	Z4	X5	Y5	Z5	X6	Y6	Z6	X7	Y7	Z7	X8	Y8	Z8	X9	Y9	Z9	X10	Y10	Z10	X11	Y11	Z11	X12	Y12	Z12	X13	Y13	Z13	X14	Y14	Z14	X15	Y15	Z15	X16	Y16	Z16	X17	Y17	Z17	X18	Y18	Z18	X19	Y19	Z19	X20	Y20	Z20	X21	Y21	Z21	X22	Y22	Z22	X23	Y23	Z23	X24	Y24	Z24	X25	Y25	Z25	X26	Y26	Z26	X27	Y27	Z27	X28	Y28	Z28	X29	Y29	Z29	X30	Y30	Z30	X31	Y31	Z31	X32	Y32	Z32	X33	Y33	Z33	X34	Y34	Z34	X35	Y35	Z35	X36	Y36	Z36	X37	Y37	Z37	X38	Y38	Z38	X39	Y39	Z39	X40	Y40	Z40	X41	Y41	Z41	X42	Y42	Z42	X43	Y43	Z43	X44	Y44	Z44	X45	Y45	Z45	X46	Y46	Z46	X47	Y47	Z47	X48	Y48	Z48	X49	Y49	Z49	X50	Y50	Z50	X51	Y51	Z51	X52	Y52	Z52	X53	Y53	Z53	X54	Y54	Z54	

213	2.12	-770.0394287109375	931.7666015625	247.4022216796875	-901.0067749023438	930.1451416015625	265.5902709960938	-833.9041748046875	1017.911254882812	255.6334381103516	-831.7958374023438	1176.78759765625	32.48323822021484	-851.3043823242188	1115.019653320312	274.8681945800781	-855.7252197265625	1364.465209960938	248.1072845458984	-829.7759399414062	1293.364013671875	91.64398193359375	-805.7307739257812	1214.891235351562	296.2328186035156	-957.1023559570312	1334.829467773438	251.7898559570312	-996.142822265625	1356.656982421875	159.9969940185547	-1070.26025390625	1240.786376953125	174.2368774414062	-1113.029174804688	1057.510498046875	136.0251159667969	-1052.787353515625	1014.775695800781	180.9421844482422	-1116.088989257812	936.3538208007812	-51.80366134643555	-1178.83154296875	905.8876953125	-8.133672714233398	-1140.639526367188	983.248779296875	82.019287109375	-1190.6591796875	846.8953857421875	-72.48700714111328	-698.1329345703125	1339.908203125	225.1325531005859	-657.88134765625	1277.366943359375	261.3197326660156	-654.3888549804688	1024.950439453125	322.8089294433594	-740.2625732421875	1016.47119140625	284.1974487304688	-606.4994506835938	789.3546142578125	254.2139434814453	-588.2194213867188	793.6142578125	326.3119201660156	-629.1006469726562	959.9008178710938	327.3099060058594	-618.2440185546875	620.9484252929688	301.3155822753906	-595.0015869140625	706.9840087890625	344.3960266113281	-753.90771484375	1543.595092773438	233.6570587158203	-837.7073974609375	1560.759521484375	53.98453903198242	-727.5801391601562	1549.444091796875	102.140998840332	-905.1408081054688	1557.837280273438	187.0513916015625	-1024.587158203125	927.3858642578125	193.3023071289062	-668.7023315429688	910.9760131835938	148.482666015625	-742.9473266601562	933.1807250976562	28.45043182373047	-1001.888000488281	928.0298461914062	72.72274017333984	-1073.158813476562	442.8842468261719	147.9073944091797	-1059.891235351562	579.8428955078125	147.4601593017578	-1047.510864257812	191.2260131835938	527.8607177734375	-1073.894409179688	303.5723876953125	339.3759460449219	-953.1508178710938	33.86914443969727	424.6465759277344	-937.1128540039062	100.2895126342773	455.84716796875	-1032.135131835938	69.61569976806641	485.1454467773438	-997.9683227539062	234.5970916748047	536.799072265625	-811.8466186523438	457.6988830566406	-36.03503799438477	-720.1196899414062	702.32275390625	14.34583759307861	-914.7066650390625	53.54596328735352	-8.534405708312988	-852.4595336914062	336.6588745117188	-59.35366058349609	-969.1654663085938	41.27133941650391	-191.1484069824219	-1004.789245605469	44.63470077514648	-116.8866577148438	-908.0513916015625	49.15716552734375	-91.07950592041016	-971.61376953125	42.29692459106445	61.5355339050293	-1162.2412109375	799.4607543945312	-158.9595947265625	-1158.595947265625	875.8621826171875	-119.5054321289062	-590.122802734375	684.494384765625	278.8412780761719	nan	nan	nan	
214	2.13	-770.2091064453125	933.8670043945312	237.5934906005859	-901.4234619140625	931.3501586914062	254.9949188232422	-833.9198608398438	1019.705444335938	244.9867095947266	-831.0038452148438	1178.377075195312	21.7829532623291	-851.7044677734375	1116.63232421875	263.6024780273438	-856.224609375	1366.188842773438	237.3164825439453	-829.3621826171875	1295.022583007812	80.90953826904297	-806.1241455078125	1216.624389648438	285.5202026367188	-957.5732421875	1336.426879882812	240.4095764160156	-996.1132202148438	1358.221557617188	148.3674621582031	-1070.312622070312	1242.39306640625	162.2518157958984	-1113.539916992188	1058.5703125	124.0218200683594	-1053.616943359375	1016.536071777344	169.7377777099609	-1115.296142578125	929.876708984375	-59.88897705078125	-1177.935180664062	900.7880249023438	-15.2155065536499	-1140.583740234375	981.9157104492188	71.62457275390625	-1188.905029296875	839.0036010742188	-76.97673034667969	-698.4830932617188	1341.761474609375	215.0370025634766	-658.0560913085938	1278.881469726562	251.1123504638672	-654.2958984375	1025.635986328125	310.1163024902344	-740.0088500976562	1017.391357421875	271.5756225585938	-607.5093383789062	791.0714111328125	237.4810943603516	-588.3955688476562	793.8295288085938	309.4432983398438	-629.0956420898438	960.3599853515625	313.3915100097656	-620.6200561523438	621.8328857421875	281.0884704589844	-596.0691528320312	706.7159423828125	325.8357849121094	-754.375732421875	1545.01220703125	224.3724975585938	-836.3441772460938	1563.0078125	43.95573806762695	-726.7427368164062	1551.3037109375	93.13355255126953	-905.0671997070312	1559.662231445312	176.3193054199219	-1024.180053710938	928.4445190429688	181.4902801513672	-668.1267700195312	912.73779296875	139.3812561035156	-741.5009155273438	934.3325805664062	18.69621467590332	-1000.760314941406	929.645263671875	61.09461212158203	-1075.210083007812	444.1191101074219	123.1987915039062	-1061.317504882812	581.1394653320312	126.3534851074219	-1057.9208984375	197.5326385498047	506.210693359375	-1080.238159179688	305.9926147460938	315.2254943847656	-962.0050659179688	34.42365264892578	407.1117248535156	-946.2345581054688	104.4548110961914	437.8132019042969	-1041.859375	74.84114837646484	465.5763244628906	-1008.450866699219	240.554443359375	515.9076538085938	-811.0921020507812	457.1099548339844	-39.33212280273438	-719.132568359375	702.2553100585938	7.610648155212402	-914.8150634765625	53.5113639831543	-8.487545013427734	-851.8927001953125	335.9144897460938	-61.72012710571289	-969.3579711914062	41.19558715820312	-191.1240997314453	-1004.884582519531	44.611083984375	-116.8437881469727	-908.1293334960938	49.17630004882812	-91.07897186279297	-971.6746826171875	42.29693222045898	61.63114166259766	-1159.783935546875	788.1241455078125	-161.2199096679688	-1156.965209960938	866.235595703125	-125.1039886474609	-591.9609375	685.5441284179688	259.7887878417969	nan	nan	nan	
215	2.14	-770.4713745117188	936.1310424804688	228.1123962402344	-902.0087890625	932.7776489257812	244.6324768066406	-834.0316772460938	1021.59765625	234.7318572998047	-830.1632080078125	1180.018310546875	11.23969650268555	-852.0203857421875	1118.388549804688	252.6275787353516	-856.6760864257812	1368.064697265625	226.5997009277344	-828.9034423828125	1296.725463867188	70.29613494873047	-806.4336547851562	1218.5478515625	274.9972839355469	-957.9874877929688	1338.172119140625	229.0979766845703	-996.0023803710938	1359.895263671875	136.8117523193359	-1070.304931640625	1244.125854492188	150.3700866699219	-1113.962768554688	1059.718872070312	112.0362854003906	-1054.344360351562	1018.424743652344	158.5803070068359	-1114.435913085938	923.3795776367188	-67.37924194335938	-1176.834106445312	895.6268920898438	-21.5916862487793	-1140.387817382812	980.605712890625	61.50956726074219	-1186.995849609375	831.1658325195312	-80.61641693115234	-698.7861328125	1343.7626953125	205.0202789306641	-658.1112060546875	1280.561889648438	241.0077972412109	-653.8831176757812	1026.504272460938	297.5098876953125	-739.3653564453125	1018.390808105469	259.1029357910156	-608.232666015625	793.1318969726562	220.5871887207031	-588.16259765625	794.3272094726562	292.3365478515625	-628.73046875	961.0253295898438	299.4592590332031	-622.4093017578125	623.0758666992188	260.4867858886719	-596.5929565429688	706.7356567382812	306.9375305175781	-754.748046875	1546.537963867188	215.0915069580078	-834.9141845703125	1565.291625976562	33.92906951904297	-725.8362426757812	1553.226806640625	84.13570404052734	-904.92529296875	1561.573852539062	165.5786895751953	-1023.802551269531	929.70654296875	169.731689453125	-667.5909423828125	914.5538940429688	130.7904968261719	-739.8959350585938	935.536865234375	9.360648155212402	-999.484375	931.3684692382812	49.5601806640625	-1076.449340820312	445.8216552734375	98.43019866943359	-1062.225952148438	582.819580078125	105.2205352783203	-1067.21630859375	202.8389739990234	483.7291870117188	-1085.770141601562	308.5606689453125	290.6804809570312	-972.6080322265625	35.40481567382812	386.1154174804688	-955.9847412109375	107.558235168457	417.0271301269531	-1052.419311523438	79.90031433105469	443.4133911132812	-1017.360717773438	244.9342346191406	494.3766174316406	-809.9534301757812	456.4745788574219	-41.89459228515625	-717.879638671875	702.159912109375	1.632073998451233	-914.8841552734375	53.4022216796875	-8.422648429870605	-850.9592895507812	335.1674499511719	-63.50744247436523	-969.4681396484375	41.14846420288086	-191.0701141357422	-1004.879455566406	44.64598083496094	-116.7897567749023	-908.07080078125	49.11921691894531	-91.03145599365234	-971.678955078125	42.28964614868164	61.74689483642578	-1157.419067382812	777.0439453125	-162.6246337890625	-1155.348022460938	856.6852416992188	-129.8614501953125	-593.3432006835938	686.9996948242188	240.3979949951172	nan	nan	nan	
216	2.15	-770.8955078125	938.5267944335938	218.9686431884766	-902.8135986328125	934.4215698242188	234.4225006103516	-834.31201171875	1023.572692871094	224.8409881591797	-829.2392578125	1181.744018554688	0.8472092747688293	-852.3062133789062	1120.274658203125	241.9431304931641	-857.1036376953125	1370.073486328125	215.9683990478516	-828.3856201171875	1298.4951171875	59.8209114074707	-806.6972045898438	1220.640014648438	264.6786193847656	-958.3565063476562	1340.050659179688	217.842529296875	-995.8103637695312	1361.682495117188	125.3160018920898	-1070.246459960938	1245.9970703125	138.5592803955078	-1114.266723632812	1060.9716796875	100.1173095703125	-1054.8994140625	1020.456848144531	147.4799346923828	-1113.482543945312	916.9452514648438	-74.25667572021484	-1175.49755859375	890.485107421875	-27.23628807067871	-1140.029052734375	979.3668823242188	51.7187614440918	-1184.91943359375	823.4854736328125	-83.38314056396484	-699.05908203125	1345.90576171875	195.1332092285156	-658.0787353515625	1282.408569335938	231.0547332763672	-653.1686401367188	1027.558837890625	285.0286865234375	-738.381591796875	1019.507141113281	246.8460693359375	-608.6864013671875	795.5447998046875	203.5649871826172	-587.5167236328125	795.1417846679688	275.0130615234375	-628.0192260742188	961.9070434570312	285.5592346191406	-623.5684204101562	624.7061157226562	239.6069030761719	-596.544677734375	707.0939331054688	287.7456665039062	-755.0130615234375	1548.163452148438	205.8150787353516	-833.4249267578125	1567.583129882812	23.89893531799316	-724.8585205078125	1555.1904296875	75.14551544189453	-904.71044921875	1563.567260742188	154.8304901123047	-1023.486083984375	931.2083740234375	157.9037628173828	-667.1076049804688	916.3959350585938	122.7694931030273	-738.0585327148438	936.8104248046875	0.4579907655715942	-997.9900512695312	933.2212524414062	38.01834869384766	-1076.915771484375	448.0595092773438	73.77307891845703	-1062.613647460938	584.9110107421875	84.18373107910156	-1075.434204101562	207.1335601806641	460.4269104003906	-1090.473876953125	311.2872619628906	265.8704833984375	-984.6837768554688	36.62136840820312	361.9352722167969	-966.1881103515625	109.459587097168	393.7484436035156	-1063.6435546875	84.66989135742188	418.8482055664062	-1024.771606445312	247.7238922119141	472.2195434570312	-808.4965209960938	455.823974609375	-43.84610366821289	-716.4005737304688	702.1001586914062	-3.70190691947937	-914.9090576171875	53.23637008666992	-8.357892990112305	-849.7271118164062	334.4414367675781	-64.81229400634766	-969.5157470703125	41.10406494140625	-191.0008697509766	-1004.788635253906	44.7266731262207	-116.7325820922852	-907.8897094726562	48.99554061889648	-90.95169067382812	-971.62548828125	42.28618240356445	61.87152862548828	-1155.1123046875	766.3093872070312	-163.1481628417969	-1153.725341796875	847.3019409179688	-133.75732421875	-594.2512817382812	688.8896484375	220.7323608398438	nan	nan	nan	
